<svg xmlns="http://www.w3.org/2000/svg" viewBox="0 0 64 64" width="64" height="64" aria-hidden="true" role="img" class="iconify iconify--logos">
  <!-- Tree Leaves (Green) -->
  <path d="M32 2C19.729 2 9.736 9.927 5.605 21H58.395C54.264 9.927 44.271 2 32 2Z" fill="#67B279"/>
  <path d="M32 22C24.12 22 17.595 26.556 14.556 33H49.444C46.405 26.556 39.88 22 32 22Z" fill="#67B279"/>
  <path d="M32 40C24.12 40 17.595 44.556 14.556 51H49.444C46.405 44.556 39.88 40 32 40Z" fill="#67B279"/>

  <!-- Tree Trunk (Brown) -->
  <path d="M29 51H35V60H29z" fill="#A0522D"/>
  <path d="M29 49C29 47.895 29.895 47 31 47H33C34.105 47 35 47.895 35 49V51H29V49Z" fill="#A0522D"/>
</svg>
